<?xml version="1.0" standalone="no"?>
<!DOCTYPE svg PUBLIC "-//W3C//DTD SVG 20010904//EN"
 "http://www.w3.org/TR/2001/REC-SVG-20010904/DTD/svg10.dtd">
<svg version="1.0" xmlns="http://www.w3.org/2000/svg"
 width="172.000000pt" height="72.000000pt" viewBox="0 0 172.000000 72.000000"
 preserveAspectRatio="xMidYMid meet">

<g transform="translate(0.000000,72.000000) scale(0.100000,-0.100000)"
fill="#EA4C89" stroke="none">
<path d="M770 597 c-61 -32 -61 -100 1 -200 64 -101 82 -143 69 -167 -19 -36
-60 -17 -60 27 0 19 -5 23 -30 23 -26 0 -30 -3 -30 -29 0 -37 33 -78 69 -86
37 -8 81 3 81 21 0 8 4 14 9 14 13 0 19 60 9 96 -4 18 -31 66 -58 108 -53 82
-65 113 -51 134 14 22 54 10 61 -18 4 -18 12 -25 30 -25 22 0 25 4 23 34 -2
60 -69 97 -123 68z"/>
<path d="M140 385 l0 -215 25 0 25 0 0 215 0 215 -25 0 -25 0 0 -215z"/>
<path d="M400 575 c0 -21 5 -25 30 -25 l30 0 1 -162 c1 -90 0 -175 -1 -190 -1
-25 2 -28 29 -28 l31 0 -1 173 c0 94 0 180 1 190 0 12 8 17 30 17 25 0 30 4
30 25 0 25 -1 25 -90 25 -89 0 -90 0 -90 -25z"/>
<path d="M1040 575 c0 -21 5 -25 30 -25 22 0 30 -5 30 -17 1 -10 2 -90 4 -178
2 -88 4 -166 5 -172 0 -7 12 -13 26 -13 l25 0 0 190 0 190 30 0 c25 0 30 4 30
25 0 25 -1 25 -90 25 -89 0 -90 0 -90 -25z"/>
<path d="M1320 385 l0 -215 25 0 25 0 1 153 c0 83 3 146 6 138 3 -8 18 -76 32
-150 21 -103 31 -137 43 -139 20 -4 23 6 53 165 l23 128 3 -75 c2 -41 2 -108
1 -147 l-3 -73 32 0 32 0 -6 137 c-4 75 -7 172 -7 215 l0 79 -37 -3 -38 -3
-18 -115 c-9 -63 -20 -130 -23 -149 -3 -18 -7 -31 -10 -29 -2 3 -15 60 -29
129 -14 68 -27 134 -30 147 -4 18 -12 22 -40 22 l-35 0 0 -215z"/>
</g>
</svg>
